<svg width="23" height="23" viewBox="0 0 23 23" fill="none" xmlns="http://www.w3.org/2000/svg">
<path d="M11.8799 22.2012C17.874 22.2012 22.8369 17.2275 22.8369 11.2441C22.8369 5.25 17.8633 0.287109 11.8691 0.287109C5.88574 0.287109 0.922852 5.25 0.922852 11.2441C0.922852 17.2275 5.89648 22.2012 11.8799 22.2012ZM10.666 16.4971C10.3008 16.4971 10 16.3467 9.7207 15.9707L7.02441 12.6621C6.86328 12.4473 6.7666 12.2109 6.7666 11.9639C6.7666 11.4805 7.14258 11.083 7.62598 11.083C7.9375 11.083 8.17383 11.1797 8.44238 11.5342L10.623 14.3486L15.21 6.97949C15.4141 6.65723 15.6934 6.48535 15.9727 6.48535C16.4453 6.48535 16.8857 6.80762 16.8857 7.3125C16.8857 7.54883 16.7461 7.7959 16.6172 8.02148L11.5684 15.9707C11.3428 16.3252 11.0312 16.4971 10.666 16.4971Z" fill="#1CCF44"/>
</svg>
