<svg width="30" height="20" viewBox="0 0 30 20" fill="none" xmlns="http://www.w3.org/2000/svg">
<path d="M28.4131 2.84659L29.1455 2.1044C29.4873 1.74307 29.4971 1.26456 29.1553 0.932527L28.9209 0.698152C28.6084 0.385652 28.1201 0.414949 27.7881 0.74698L27.0557 1.46964L28.4131 2.84659ZM17.0947 13.0517L19.0869 12.1728L27.6904 3.57901L26.3135 2.22159L17.7295 10.8153L16.792 12.7392C16.7041 12.9052 16.9092 13.1396 17.0947 13.0517ZM3.02246 19.3896H22.251C24.0869 19.3896 25.1025 18.4228 25.1025 16.5771V8.59854L23.5303 10.1708V16.6552C23.5303 17.4657 23.0713 17.9247 22.2607 17.9247H3.0127C2.20215 17.9247 1.74316 17.4657 1.74316 16.6552V8.44229C1.74316 7.63175 2.20215 7.17276 3.0127 7.17276H18.9307L20.4053 5.70792H3.02246C1.18652 5.70792 0.170898 6.67472 0.170898 8.52042V16.5771C0.170898 18.4228 1.18652 19.3896 3.02246 19.3896ZM5.35645 13.9403C6.12793 13.9403 6.75293 13.3153 6.75293 12.5439C6.75293 11.7724 6.12793 11.1474 5.35645 11.1474C4.58496 11.1474 3.95996 11.7724 3.95996 12.5439C3.95996 13.3153 4.58496 13.9403 5.35645 13.9403ZM9.56543 13.9403C10.3369 13.9403 10.9619 13.3153 10.9619 12.5439C10.9619 11.7724 10.3369 11.1474 9.56543 11.1474C8.79395 11.1474 8.16895 11.7724 8.16895 12.5439C8.16895 13.3153 8.79395 13.9403 9.56543 13.9403ZM13.7744 13.9403C14.5459 13.9403 15.1709 13.3153 15.1709 12.5439C15.1709 11.7724 14.5459 11.1474 13.7744 11.1474C13.0029 11.1474 12.3779 11.7724 12.3779 12.5439C12.3779 13.3153 13.0029 13.9403 13.7744 13.9403Z" fill="#777777"/>
</svg>
