<svg width="25" height="21" viewBox="0 0 25 21" fill="none" xmlns="http://www.w3.org/2000/svg">
<path d="M0.844727 9.88599C0.844727 10.2864 1.15723 10.6672 1.68457 10.6672C1.95801 10.6672 2.18262 10.5208 2.3877 10.3547L3.65723 9.28052V18.5969C3.65723 19.9641 4.46777 20.7551 5.86426 20.7551H19.0771C20.4639 20.7551 21.2744 19.9641 21.2744 18.5969V9.21216L22.6318 10.3547C22.8271 10.5208 23.0518 10.6672 23.3252 10.6672C23.7842 10.6672 24.1553 10.384 24.1553 9.91528C24.1553 9.62231 24.0576 9.427 23.8525 9.25122L21.2744 7.08325V3.04028C21.2744 2.6106 21.001 2.33716 20.5713 2.33716H19.5264C19.1064 2.33716 18.8232 2.6106 18.8232 3.04028V5.02271L13.6865 0.706299C12.9639 0.0910645 12.0654 0.0910645 11.333 0.706299L1.15723 9.25122C0.942383 9.427 0.844727 9.66138 0.844727 9.88599ZM15.3271 12.6399C15.3271 12.1907 15.0342 11.8977 14.585 11.8977H10.4443C9.98535 11.8977 9.69238 12.1907 9.69238 12.6399V19.1829H6.19629C5.57129 19.1829 5.22949 18.8313 5.22949 18.1965V7.96216L12.1631 2.15161C12.3779 1.9563 12.6416 1.9563 12.8564 2.15161L19.7021 7.8938V18.1965C19.7021 18.8313 19.3604 19.1829 18.7451 19.1829H15.3271V12.6399Z" fill="#777777"/>
</svg>
