<svg width="23" height="15" viewBox="0 0 23 15" fill="none" xmlns="http://www.w3.org/2000/svg">
<path d="M19.4825 0.107834L6.00333 0.121645C4.96753 0.121645 4.63607 0.384047 3.91101 1.10911L1.28698 3.73314C0.555014 4.4651 0.499771 4.86561 0.499771 5.91522V9.09168C0.499771 10.1275 0.548108 10.5349 1.28007 11.2669L3.91101 13.8978C4.63607 14.6229 4.96062 14.8784 5.99642 14.8784L19.4895 14.8922C21.4644 14.8922 22.5071 13.8909 22.5002 11.8676L22.4933 3.13237C22.4864 1.10911 21.4575 0.107834 19.4825 0.107834ZM19.3928 1.68916C20.3871 1.68916 20.9189 2.20706 20.912 3.22214L20.9189 11.7917C20.9189 12.7998 20.3802 13.3247 19.3997 13.3247L6.00333 13.3108C5.72711 13.3108 5.49233 13.2556 5.25755 13.0208L2.3504 10.1137C2.13634 9.89961 2.07419 9.67173 2.07419 9.38171L2.06728 5.61829C2.06728 5.32827 2.13634 5.1073 2.3504 4.89323L5.26446 1.97918C5.49233 1.7513 5.72021 1.68916 5.99642 1.68916H19.3928ZM7.61227 6.55052C7.07365 6.0119 6.24501 6.02571 5.72021 6.55052C5.1885 7.08223 5.18159 7.90396 5.72021 8.44258C6.26573 8.9881 7.08056 8.97429 7.61227 8.44258C8.13708 7.91777 8.15779 7.09604 7.61227 6.55052Z" fill="#777777"/>
</svg>
