<svg width="15" height="25" viewBox="0 0 15 25" fill="none" xmlns="http://www.w3.org/2000/svg">
<path d="M6.82129 24.3931C7.23145 24.7349 7.78809 24.7837 8.17871 24.4028L11.1963 21.3853C11.5771 20.9946 11.5576 20.4087 11.1865 20.0278L9.67285 18.5239L11.8799 16.3267C12.2607 15.9556 12.2412 15.3599 11.8701 14.9693L9.8291 12.9185C12.5146 11.6294 14.0283 9.44191 14.0283 6.84425C14.0283 3.24074 11.1084 0.330582 7.50488 0.330582C3.87207 0.330582 0.97168 3.22121 0.97168 6.84425C0.97168 9.46144 2.47559 11.7857 4.84863 12.8306V22.0493C4.84863 22.3716 4.94629 22.7427 5.22949 22.9966L6.82129 24.3931ZM7.50488 22.8501L6.4209 21.7759V11.6978C4.12598 11.1802 2.53418 9.19777 2.53418 6.84425C2.53418 4.10988 4.75098 1.90285 7.50488 1.90285C10.249 1.90285 12.4561 4.10988 12.4561 6.84425C12.4561 9.17824 10.8545 11.1802 8.40332 11.7661V13.7388L10.3174 15.6626L8.24707 17.7036V19.3247L9.63379 20.6919L7.50488 22.8501ZM7.50488 6.93214C8.48145 6.93214 9.27246 6.14113 9.27246 5.1548C9.27246 4.17824 8.48145 3.38722 7.50488 3.38722C6.50879 3.38722 5.72754 4.16847 5.72754 5.1548C5.72754 6.14113 6.51855 6.93214 7.50488 6.93214Z" fill="#777777"/>
</svg>
