<svg width="23" height="17" viewBox="0 0 23 17" fill="none" xmlns="http://www.w3.org/2000/svg">
<path d="M3.78516 16.9131H19.5078C21.2656 16.9131 22.2812 15.8975 22.2812 13.8857V3.10449C22.2812 1.10254 21.2559 0.0869141 19.2148 0.0869141H3.49219C1.73438 0.0869141 0.71875 1.09277 0.71875 3.10449V13.8857C0.71875 15.9072 1.74414 16.9131 3.78516 16.9131ZM10.3379 8.99316L2.96484 1.71777C3.17969 1.62988 3.43359 1.58105 3.72656 1.58105H19.2734C19.5762 1.58105 19.8398 1.62988 20.0547 1.72754L12.7012 8.99316C12.2812 9.41309 11.9004 9.59863 11.5195 9.59863C11.1289 9.59863 10.748 9.40332 10.3379 8.99316ZM2.21289 13.8857V3.10449C2.21289 3.02637 2.21289 3.06543 2.21289 2.99707L7.82812 8.51465L2.22266 14.0518C2.21289 14.0029 2.21289 13.9443 2.21289 13.8857ZM20.7871 3.11426V13.8955C20.7871 13.9346 20.7871 13.9834 20.7871 14.0225L15.2109 8.51465L20.7871 3.02637C20.7871 3.11426 20.7871 3.11426 20.7871 3.11426ZM3.72656 15.4189C3.45312 15.4189 3.21875 15.3799 3.01367 15.292L8.85352 9.52051L9.48828 10.1455C10.1719 10.8193 10.8262 11.1025 11.5195 11.1025C12.2031 11.1025 12.8672 10.8193 13.5508 10.1455L14.1855 9.52051L20.0156 15.2822C19.8008 15.3799 19.5566 15.4189 19.2734 15.4189H3.72656Z" fill="#777777"/>
</svg>
