<svg width="19" height="19" viewBox="0 0 19 19" fill="none" xmlns="http://www.w3.org/2000/svg">
<path d="M9.50488 9.50977C11.8291 9.50977 13.7236 7.43945 13.7236 4.91992C13.7236 2.41992 11.8389 0.457031 9.50488 0.457031C7.19043 0.457031 5.28613 2.45898 5.28613 4.93945C5.2959 7.44922 7.18066 9.50977 9.50488 9.50977ZM9.50488 8.03516C8.0791 8.03516 6.8584 6.66797 6.8584 4.93945C6.8584 3.24023 8.05957 1.93164 9.50488 1.93164C10.96 1.93164 12.1514 3.2207 12.1514 4.91992C12.1514 6.64844 10.9404 8.03516 9.50488 8.03516ZM3.3623 18.543H15.6377C17.2588 18.543 18.0303 18.0547 18.0303 16.9805C18.0303 14.4219 14.7979 10.7207 9.50488 10.7207C4.20215 10.7207 0.969727 14.4219 0.969727 16.9805C0.969727 18.0547 1.74121 18.543 3.3623 18.543ZM2.90332 17.0684C2.64941 17.0684 2.54199 17 2.54199 16.7949C2.54199 15.1934 5.02246 12.1953 9.50488 12.1953C13.9775 12.1953 16.458 15.1934 16.458 16.7949C16.458 17 16.3604 17.0684 16.1064 17.0684H2.90332Z" fill="#777777"/>
</svg>
