<svg width="13" height="21" viewBox="0 0 13 21" fill="none" xmlns="http://www.w3.org/2000/svg">
<path d="M2.87695 20.8369H10.123C11.7148 20.8369 12.7793 19.8213 12.7793 18.2979V2.70215C12.7793 1.17871 11.7148 0.163086 10.123 0.163086H2.87695C1.28516 0.163086 0.220703 1.17871 0.220703 2.70215V18.2979C0.220703 19.8213 1.28516 20.8369 2.87695 20.8369ZM3.08203 19.2646C2.25195 19.2646 1.79297 18.8252 1.79297 18.0439V2.95605C1.79297 2.1748 2.25195 1.73535 3.08203 1.73535H9.92773C10.748 1.73535 11.207 2.1748 11.207 2.95605V18.0439C11.207 18.8252 10.748 19.2646 9.92773 19.2646H3.08203ZM3.55078 4.78223H4.46875C4.68359 4.78223 4.84961 4.63574 4.84961 4.4209V3.4834C4.84961 3.26855 4.68359 3.12207 4.46875 3.12207H3.55078C3.33594 3.12207 3.18945 3.26855 3.18945 3.4834V4.4209C3.18945 4.63574 3.33594 4.78223 3.55078 4.78223ZM6.02148 4.78223H6.94922C7.16406 4.78223 7.33008 4.63574 7.33008 4.4209V3.4834C7.33008 3.26855 7.16406 3.12207 6.94922 3.12207H6.02148C5.81641 3.12207 5.66992 3.26855 5.66992 3.4834V4.4209C5.66992 4.63574 5.81641 4.78223 6.02148 4.78223ZM8.50195 4.78223H9.41992C9.64453 4.78223 9.80078 4.63574 9.80078 4.4209V3.4834C9.80078 3.26855 9.64453 3.12207 9.41992 3.12207H8.50195C8.29688 3.12207 8.15039 3.26855 8.15039 3.4834V4.4209C8.15039 4.63574 8.29688 4.78223 8.50195 4.78223ZM3.55078 7.42871H4.46875C4.68359 7.42871 4.84961 7.28223 4.84961 7.07715V6.12988C4.84961 5.91504 4.68359 5.76855 4.46875 5.76855H3.55078C3.33594 5.76855 3.18945 5.91504 3.18945 6.12988V7.07715C3.18945 7.28223 3.33594 7.42871 3.55078 7.42871ZM6.02148 7.42871H6.94922C7.16406 7.42871 7.33008 7.28223 7.33008 7.07715V6.12988C7.33008 5.91504 7.16406 5.76855 6.94922 5.76855H6.02148C5.81641 5.76855 5.66992 5.91504 5.66992 6.12988V7.07715C5.66992 7.28223 5.81641 7.42871 6.02148 7.42871ZM8.50195 7.42871H9.41992C9.64453 7.42871 9.80078 7.28223 9.80078 7.07715V6.12988C9.80078 5.91504 9.64453 5.76855 9.41992 5.76855H8.50195C8.29688 5.76855 8.15039 5.91504 8.15039 6.12988V7.07715C8.15039 7.28223 8.29688 7.42871 8.50195 7.42871ZM3.55078 10.085H4.46875C4.68359 10.085 4.84961 9.93848 4.84961 9.72363V8.78613C4.84961 8.57129 4.68359 8.4248 4.46875 8.4248H3.55078C3.33594 8.4248 3.18945 8.57129 3.18945 8.78613V9.72363C3.18945 9.93848 3.33594 10.085 3.55078 10.085ZM6.02148 10.085H6.94922C7.16406 10.085 7.33008 9.93848 7.33008 9.72363V8.78613C7.33008 8.57129 7.16406 8.4248 6.94922 8.4248H6.02148C5.81641 8.4248 5.66992 8.57129 5.66992 8.78613V9.72363C5.66992 9.93848 5.81641 10.085 6.02148 10.085ZM3.55078 17.9365H4.46875C4.68359 17.9365 4.84961 17.79 4.84961 17.585V16.6377C4.84961 16.4326 4.68359 16.2861 4.46875 16.2861H3.55078C3.33594 16.2861 3.18945 16.4326 3.18945 16.6377V17.585C3.18945 17.79 3.33594 17.9365 3.55078 17.9365ZM6.02148 17.9365H6.94922C7.16406 17.9365 7.33008 17.79 7.33008 17.585V16.6377C7.33008 16.4326 7.16406 16.2861 6.94922 16.2861H6.02148C5.81641 16.2861 5.66992 16.4326 5.66992 16.6377V17.585C5.66992 17.79 5.81641 17.9365 6.02148 17.9365ZM8.50195 17.9365H9.41992C9.64453 17.9365 9.80078 17.79 9.80078 17.585V16.6377C9.80078 16.4326 9.64453 16.2861 9.41992 16.2861H8.50195C8.29688 16.2861 8.15039 16.4326 8.15039 16.6377V17.585C8.15039 17.79 8.29688 17.9365 8.50195 17.9365Z" fill="#777777"/>
</svg>
